<?xml version="1.0" encoding="UTF-8"?>
<svg version="1.1" xmlns="http://www.w3.org/2000/svg" width="1536" height="1024">
<path d="M0 0 C506.88 0 1013.76 0 1536 0 C1536 337.92 1536 675.84 1536 1024 C1029.12 1024 522.24 1024 0 1024 C0 686.08 0 348.16 0 0 Z " fill="#FDFDFD" transform="translate(0,0)"/>
<path d="M0 0 C7.92 0 15.84 0 24 0 C24.38671875 1.9078125 24.7734375 3.815625 25.171875 5.78125 C27.85340067 18.92823442 30.59794535 32.01664859 34 45 C35.00667632 48.99833931 36.00434129 52.99890424 37 57 C37.49290527 56.26064209 37.98581055 55.52128418 38.49365234 54.75952148 C39.56739299 53.14891052 40.64113363 51.53829956 41.71487427 49.9276886 C42.10351654 49.34472519 42.49215881 48.76176178 42.89257812 48.16113281 C44.13761393 46.2935791 45.38264974 44.42602539 46.62768555 42.55847168 C47.04123291 41.93815063 47.45478027 41.31782959 47.88085938 40.67871094 C48.29253357 40.06119965 48.70420776 39.44368835 49.12835693 38.8074646 C49.74157806 37.8876329 49.74157806 37.8876329 50.3671875 36.94921875 C52.93489583 33.09765625 55.50260417 29.24609375 58.0703125 25.39453125 C58.69450073 24.45407959 58.69450073 24.45407959 59.33129883 23.49462891 C60.10465092 22.34017433 60.88825209 21.19251393 61.68237305 20.05224609 C63.75704999 17.04663002 65.47157353 14.08521505 67.01171875 10.76953125 C71.1373855 2.48882346 71.1373855 2.48882346 75 0 C82.50779734 -1.80088906 90.41048186 -0.92520382 98 0 C97.4549202 6.14856341 96.71058886 12.18573579 95.5625 18.25 C94.60152425 23.36503494 93.77633926 28.48180523 93.0546875 33.63671875 C92.02431855 40.96956837 90.80706151 48.2634312 89.5625 55.5625 C87.51552791 67.68704764 85.6771056 79.81891722 84 92 C77.07 92 70.14 92 63 92 C63 84.12580478 63 84.12580478 63.70263672 80.55615234 C63.85634735 79.75776947 64.01005798 78.9593866 64.16842651 78.1368103 C64.33714264 77.29502228 64.50585876 76.45323425 64.6796875 75.5859375 C64.93892502 74.24869125 64.93892502 74.24869125 65.20339966 72.88442993 C65.75446892 70.04671607 66.31421422 67.21080821 66.875 64.375 C67.6050356 60.6543181 68.33122764 56.93290338 69.0546875 53.2109375 C69.3146048 51.87660675 69.3146048 51.87660675 69.57977295 50.51531982 C70.89508134 43.69945753 72.03883234 36.8757987 73 30 C60.19077289 49.51296708 60.19077289 49.51296708 47.4375 69.0625 C47.00397217 69.72628662 46.57044434 70.39007324 46.1237793 71.07397461 C44.2262326 74.00145126 42.56453186 76.87093629 41 80 C35.06 80 29.12 80 23 80 C22.66226563 78.70964844 22.32453125 77.41929687 21.9765625 76.08984375 C21.52608161 74.37238536 21.07555854 72.65493803 20.625 70.9375 C20.40328125 70.08994141 20.1815625 69.24238281 19.953125 68.36914062 C18.9720418 64.63236784 17.97361327 60.90927814 16.89453125 57.19921875 C16.11661244 54.41705498 15.53100556 51.72172904 15.0625 48.875 C13.95833481 42.52384182 12.49498278 36.26896113 11 30 C9.5732817 34.86413415 8.31169581 39.74386636 7.171875 44.68359375 C6.82114079 46.18868064 6.4702215 47.69372441 6.11914062 49.19873047 C5.93681885 49.98221863 5.75449707 50.76570679 5.56665039 51.57293701 C4.60111444 55.7084968 3.62045557 59.84046423 2.640625 63.97265625 C2.24347888 65.64908601 1.84634348 67.3255183 1.44921875 69.00195312 C1.04948204 70.68880276 0.64974242 72.37565171 0.25 74.0625 C-0.16537646 75.81575239 -0.5807411 77.56900759 -0.99609375 79.32226562 C-1.99723875 83.54821433 -2.99862362 87.77410609 -4 92 C-10.27 92 -16.54 92 -23 92 C-20.59190088 80.15370592 -17.9256582 68.4743 -14.76663208 56.8086853 C-11.20085471 43.63116634 -7.80322009 30.44460338 -4.88916016 17.10522461 C-4.57470947 15.68222046 -4.57470947 15.68222046 -4.25390625 14.23046875 C-3.99589233 13.03006958 -3.99589233 13.03006958 -3.73266602 11.80541992 C-2.68979229 7.81219699 -1.30512126 3.91536378 0 0 Z " fill="#4FAD98" transform="translate(782,444)"/>
<path d="M0 0 C5.78001685 -0.04983765 11.55990564 -0.08592481 17.34008789 -0.10986328 C19.30202415 -0.11985425 21.26394578 -0.13345163 23.22583008 -0.15087891 C53.32480818 -0.41134347 53.32480818 -0.41134347 62.125 7.25 C62.78757812 7.81203125 63.45015625 8.3740625 64.1328125 8.953125 C69.42062614 14.74980773 69.64283878 20.56913583 69.47265625 28.1015625 C68.39300103 37.00648737 64.09184463 44.08181738 57.08984375 49.60546875 C54.41746817 51.3887175 51.69201596 52.86219974 48.76171875 54.17578125 C46.72542033 55.07483651 46.72542033 55.07483651 44 57 C44.50974365 58.01425049 45.0194873 59.02850098 45.54467773 60.07348633 C47.43456439 63.83516556 49.3218071 67.59816599 51.20825195 71.36157227 C52.02523848 72.99051521 52.84294252 74.6190985 53.66137695 76.24731445 C54.83733721 78.58711166 56.01071489 80.92818822 57.18359375 83.26953125 C57.55028671 83.99775589 57.91697968 84.72598053 58.29478455 85.47627258 C59.70293674 88.29226441 61.0028968 91.00869041 62 94 C54.41 94 46.82 94 39 94 C35.71048333 87.42096665 32.48838148 80.82109616 29.3125 74.1875 C28.81427734 73.15173828 28.31605469 72.11597656 27.80273438 71.04882812 C27.32771484 70.05689453 26.85269531 69.06496094 26.36328125 68.04296875 C25.71806519 66.69755005 25.71806519 66.69755005 25.05981445 65.32495117 C24 63 24 63 23 60 C18.71 59.67 14.42 59.34 10 59 C9.896875 60.8975 9.79375 62.795 9.6875 64.75 C9.26771459 70.35322265 8.29561072 75.47048938 6.71875 80.85546875 C5.73412991 85.16318164 5.43968786 89.60312138 5 94 C-2.59 94 -10.18 94 -18 94 C-17.01 88.92625 -17.01 88.92625 -16 83.75 C-13.74324834 72.10509944 -11.62334523 60.43743577 -9.52050781 48.76391602 C-6.58176034 32.45331617 -3.51767966 16.19727076 0 0 Z " fill="#31604F" transform="translate(489,442)"/>
<path d="M0 0 C6.27 0 12.54 0 19 0 C19 7.88662132 19 7.88662132 18.44921875 11.3828125 C18.32740234 12.15882813 18.20558594 12.93484375 18.08007812 13.734375 C17.88575195 14.91773438 17.88575195 14.91773438 17.6875 16.125 C17.56955078 16.89070313 17.45160156 17.65640625 17.33007812 18.4453125 C16.6131682 22.91588925 15.71125404 27.30108366 14.65234375 31.703125 C12.55736118 40.60305404 11.00261707 49.60137692 9.41064453 58.60253906 C8.87469287 61.62673303 8.33021678 64.64931111 7.78515625 67.671875 C7.4369842 69.62751241 7.08931091 71.58323869 6.7421875 73.5390625 C6.58176971 74.42582672 6.42135193 75.31259094 6.256073 76.22622681 C5.16265798 82.46465916 4.48782836 88.68620989 4 95 C-7.89826518 95.7839267 -7.89826518 95.7839267 -12.25 92.6875 C-14 90 -14 90 -15 87 C-15.4846875 87.38671875 -15.969375 87.7734375 -16.46875 88.171875 C-25.55771627 95.23330264 -32.14924705 98.43870217 -44 97 C-50.28940406 95.27169222 -54.37118889 91.29351324 -58 86 C-62.07882233 78.03658498 -61.96979673 67.98969674 -59.80859375 59.44921875 C-55.78372508 47.25794989 -49.21215007 38.44229401 -37.75 32.5 C-30.64664114 29.11744816 -24.55961516 28.84182178 -16.8125 28.875 C-15.89791016 28.87113281 -14.98332031 28.86726563 -14.04101562 28.86328125 C-13.16767578 28.86457031 -12.29433594 28.86585938 -11.39453125 28.8671875 C-10.59893799 28.86831543 -9.80334473 28.86944336 -8.98364258 28.87060547 C-7 29 -7 29 -5 30 C-4.81630859 28.11474609 -4.81630859 28.11474609 -4.62890625 26.19140625 C-4.02028899 20.7138509 -3.00187187 15.34210203 -1.9375 9.9375 C-1.75123047 8.97650391 -1.56496094 8.01550781 -1.37304688 7.02539062 C-0.91854809 4.68297381 -0.45972625 2.34139648 0 0 Z " fill="#4FAC98" transform="translate(1050,441)"/>
<path d="M0 0 C3.78099161 3.76543198 4.75230561 6.57543797 5.3359375 11.828125 C5.0779022 17.70684233 2.34536783 21.40840369 -1.6640625 25.515625 C-10.88688403 32.60288226 -20.72738166 34.06324499 -31.9765625 33.953125 C-32.85570312 33.94861328 -33.73484375 33.94410156 -34.640625 33.93945312 C-36.79430053 33.92774837 -38.94794067 33.90981569 -41.1015625 33.890625 C-40.81796363 35.3297384 -40.52434851 36.76688018 -40.2265625 38.203125 C-39.98292969 39.40388672 -39.98292969 39.40388672 -39.734375 40.62890625 C-38.86941051 43.7203534 -37.35175585 45.64043165 -35.1015625 47.890625 C-28.60582761 51.13849245 -19.52592718 48.97083847 -12.9765625 46.890625 C-11.92210937 46.519375 -10.86765625 46.148125 -9.78125 45.765625 C-7.1015625 44.890625 -7.1015625 44.890625 -4.1015625 44.890625 C-4.21538903 46.84963954 -4.34297375 48.8078588 -4.4765625 50.765625 C-4.54617188 51.85617187 -4.61578125 52.94671875 -4.6875 54.0703125 C-5.1015625 56.890625 -5.1015625 56.890625 -7.1015625 58.890625 C-14.4711485 61.90482715 -22.00121095 62.17977108 -29.8515625 62.203125 C-31.18151245 62.21110107 -31.18151245 62.21110107 -32.53833008 62.21923828 C-40.9686717 62.12934408 -48.9258025 61.12648972 -55.1015625 54.890625 C-60.63704526 47.00935626 -61.92156589 39.39095001 -61.1015625 29.890625 C-59.40688937 20.71284705 -56.64897734 13.60449954 -50.1015625 6.890625 C-49.555 6.32859375 -49.0084375 5.7665625 -48.4453125 5.1875 C-35.9157198 -6.51466676 -14.08266849 -11.50942341 0 0 Z " fill="#315F4E" transform="translate(618.1015625,475.109375)"/>
<path d="M0 0 C4.2266175 4.508392 4.27447864 9.41030784 4.2265625 15.3359375 C3.55416506 26.21022715 1.64622965 37.05916069 -0.54052734 47.72143555 C-1.1368777 50.67878831 -1.64029062 53.6474995 -2.125 56.625 C-2.41375 58.39875 -2.7025 60.1725 -3 62 C-9.6 62 -16.2 62 -23 62 C-22.44098077 54.1673053 -21.19892726 46.82879512 -19.4375 39.1875 C-17.46729125 30.27849029 -16.2751082 22.14974542 -17 13 C-21.36495708 10.5673947 -25.08361381 10.06987288 -30 11 C-33.62989415 12.86219685 -37.10147672 15.10147672 -40 18 C-42.44229719 27.35655709 -43.45754288 37.1711208 -44.89819336 46.7265625 C-45.22225352 48.87023588 -45.55036509 51.01325954 -45.87890625 53.15625 C-46.16616577 55.05600586 -46.16616577 55.05600586 -46.45922852 56.99414062 C-47 60 -47 60 -48 62 C-54.6 62 -61.2 62 -68 62 C-67.27421968 57.56193054 -66.54590381 53.12431312 -65.8125 48.6875 C-65.64651306 47.68333038 -65.64651306 47.68333038 -65.47717285 46.65887451 C-63.65636328 35.67410913 -61.69940798 24.721763 -59.61254883 13.78393555 C-59.41556396 12.74406494 -59.2185791 11.70419434 -59.015625 10.6328125 C-58.84321289 9.73449707 -58.67080078 8.83618164 -58.49316406 7.91064453 C-57.8799464 4.29144603 -57.45530436 0.64243485 -57 -3 C-51.06 -3 -45.12 -3 -39 -3 C-38.67 -0.03 -38.34 2.94 -38 6 C-37.030625 5.0925 -36.06125 4.185 -35.0625 3.25 C-24.8892859 -5.47874151 -11.27970433 -8.05693167 0 0 Z " fill="#4EAB96" transform="translate(979,474)"/>
<path d="M0 0 C6.6 0 13.2 0 20 0 C19.20362901 9.58391296 17.47950807 18.93910106 15.72851562 28.38867188 C13.04863326 40.07169298 13.04863326 40.07169298 16 51 C23.72609093 51.79925079 29.95352008 49.88369532 36 45 C36.66 45 37.32 45 38 45 C37.98839844 44.36191406 37.97679687 43.72382812 37.96484375 43.06640625 C37.95582031 42.24011719 37.94679688 41.41382813 37.9375 40.5625 C37.92589844 39.73878906 37.91429687 38.91507812 37.90234375 38.06640625 C38 36 38 36 39 35 C39.50107254 32.14750871 39.95323143 29.3019309 40.375 26.4375 C41.72099068 17.58025766 43.30513619 8.79715026 45 0 C51.27 0 57.54 0 64 0 C63.600465 6.95301879 62.790252 13.63603969 61.40625 20.44921875 C61.17832764 21.57132248 61.17832764 21.57132248 60.94580078 22.71609497 C60.31053922 25.81139708 59.66577785 28.90456816 59.01123047 31.99584961 C56.68950964 43.02695204 55.35082162 53.72806546 55 65 C42.27314092 65.63904739 42.27314092 65.63904739 38.9921875 63.9921875 C36.86828044 61.86828044 35.94470973 59.83412918 35 57 C34.443125 57.38671875 33.88625 57.7734375 33.3125 58.171875 C30.89807191 59.81955904 28.45905436 61.41972996 26 63 C25.34257813 63.42539062 24.68515625 63.85078125 24.0078125 64.2890625 C18.4735235 67.48103832 13.28571014 67.75277966 7 67 C1.02151532 65.33386493 -2.69175497 62.16219443 -6 57 C-10.27889475 44.42264269 -5.30896169 28.54008691 -3 16 C-2.76047607 14.68829834 -2.76047607 14.68829834 -2.51611328 13.35009766 C-1.70024585 8.8951603 -0.85535021 4.44782108 0 0 Z " fill="#336251" transform="translate(691,471)"/>
<path d="M0 0 C7.57424714 -0.2418342 14.35232805 0.7367109 21.18359375 4.15234375 C20.87309649 5.59027767 20.56011615 7.02767555 20.24609375 8.46484375 C20.07207031 9.26535156 19.89804687 10.06585938 19.71875 10.890625 C19.18359375 13.15234375 19.18359375 13.15234375 18.18359375 16.15234375 C11.58918034 15.26463425 11.58918034 15.26463425 9.29296875 14.62890625 C6.71833573 14.0472299 4.32207815 13.98296521 1.68359375 13.96484375 C0.74515625 13.95066406 -0.19328125 13.93648438 -1.16015625 13.921875 C-3.87634962 14.15754472 -5.49555671 14.76749721 -7.81640625 16.15234375 C-6.97904772 20.87459018 -6.68419213 22.50672865 -2.734375 25.4453125 C-1.50288385 26.09991261 -0.25870164 26.73110712 0.99609375 27.33984375 C13.37410892 33.69052865 13.37410892 33.69052865 16.18359375 40.15234375 C18.00368629 47.05147832 17.15396295 51.84893463 13.63671875 58.0234375 C10.21511321 63.03627357 5.80737587 65.14385013 0.18359375 67.15234375 C-2.75390625 67.33984375 -2.75390625 67.33984375 -4.81640625 67.15234375 C-4.81640625 67.81234375 -4.81640625 68.47234375 -4.81640625 69.15234375 C-15.02914711 69.50227269 -25.40667064 69.85721155 -34.81640625 65.15234375 C-34.53158257 63.73428544 -34.23822481 62.31793996 -33.94140625 60.90234375 C-33.77898438 60.1134375 -33.6165625 59.32453125 -33.44921875 58.51171875 C-32.8249055 56.18403231 -31.96802083 54.26202423 -30.81640625 52.15234375 C-29.62015625 52.64734375 -28.42390625 53.14234375 -27.19140625 53.65234375 C-20.92685314 55.74384797 -14.34669775 55.98184529 -7.81640625 55.15234375 C-5.42697735 53.94155115 -5.42697735 53.94155115 -3.81640625 52.15234375 C-2.81563628 49.24059415 -2.81563628 49.24059415 -3.81640625 46.15234375 C-6.21085684 44.01675268 -8.98700457 42.63766573 -11.81640625 41.15234375 C-24.70096527 34.1740198 -24.70096527 34.1740198 -26.81640625 28.15234375 C-27.7503467 22.47425653 -28.2006927 16.90377378 -25.5546875 11.64453125 C-20.75255506 5.75660197 -14.3966432 1.91534507 -7.00390625 0.33984375 C-4.67026045 0.18674174 -2.33568608 0.12634086 0 0 Z " fill="#346252" transform="translate(656.81640625,468.84765625)"/>
<path d="M0 0 C6.27 0 12.54 0 19 0 C18.40786822 8.52798481 17.30584367 16.78558668 15.75 25.1875 C15.53255127 26.38407227 15.31510254 27.58064453 15.09106445 28.81347656 C12.87421467 40.90480642 10.46521123 52.95718087 8 65 C1.73 65 -4.54 65 -11 65 C-10.4007483 55.69354894 -8.97126389 46.69963411 -7.1875 37.5625 C-6.91722645 36.1537569 -6.64753817 34.74490139 -6.37841797 33.3359375 C-5.84293944 30.53728395 -5.30418527 27.73929653 -4.76220703 24.94189453 C-3.89375219 20.45748727 -3.04148432 15.97005545 -2.19116211 11.48217773 C-1.46440597 7.65409399 -0.7316609 3.82714933 0 0 Z " fill="#4DAB96" transform="translate(890,471)"/>
<path d="M0 0 C1.30324219 0.02449219 2.60648438 0.04898437 3.94921875 0.07421875 C7.3125 0.3125 7.3125 0.3125 10.3125 1.3125 C9.66196663 8.4286176 8.8508579 15.50149072 7.75 22.5625 C7.63076172 23.51640625 7.51152344 24.4703125 7.38867188 25.453125 C6.55151437 30.62697396 5.66139284 33.60663196 1.41015625 36.859375 C-4.65140095 40.78594845 -9.40912724 42.32977673 -16.6875 41.3125 C-19.26387471 39.42734777 -20.28417428 38.11915143 -21.6875 35.3125 C-22.46175369 24.44756302 -21.90995281 15.78692764 -15.8125 6.4375 C-10.80592834 1.43092834 -7.10623358 -0.2050555 0 0 Z " fill="#FBFCFC" transform="translate(1031.6875,482.6875)"/>
<path d="M0 0 C3.18718443 -0.117292 6.37380568 -0.18760766 9.5625 -0.25 C10.45775391 -0.28351563 11.35300781 -0.31703125 12.27539062 -0.3515625 C18.42642787 -0.44168759 21.99895975 0.34615193 27 4 C30.00608407 8.5091261 29.80958291 12.72011147 29 18 C26.64788406 23.27062769 23.44536612 27.74216527 18 30 C12.65839052 31.80495782 8.11704769 32.25713014 2.5625 32.125 C1.83095703 32.11597656 1.09941406 32.10695313 0.34570312 32.09765625 C-1.43634298 32.07436153 -3.21821759 32.0385019 -5 32 C-4.88544319 30.08268082 -4.75793742 28.1661325 -4.625 26.25 C-4.55539062 25.18265625 -4.48578125 24.1153125 -4.4140625 23.015625 C-4 20 -4 20 -3.03125 18.125 C-1.43690741 14.83968799 -1.26168645 11.3379431 -0.875 7.75 C-0.78863281 7.00492187 -0.70226562 6.25984375 -0.61328125 5.4921875 C-0.40213133 3.66222154 -0.20015455 1.83120121 0 0 Z " fill="#F7F9F8" transform="translate(507,457)"/>
<path d="M0 0 C2.97333174 1.33434355 3.83235298 2.33212674 6 5 C6.78649694 8.57820678 6.35753983 11.79736602 5.3125 15.3125 C2.88447303 18.43424896 0.56097503 19.76379983 -3.375 20.359375 C-7.79895043 20.59637234 -10.30117163 20.43327359 -14.125 18.0625 C-16.28162585 14.54001112 -16.8584076 12.31460114 -16.60546875 8.2265625 C-15.67182041 4.79314603 -13.97496048 3.09875678 -11.1328125 1.0390625 C-7.35608781 -0.8008803 -4.06413274 -0.96449527 0 0 Z " fill="#52AE9B" transform="translate(909,437)"/>
<path d="M0 0 C2.5 1.625 2.5 1.625 4 4 C4.5625 7 4.5625 7 4 10 C-0.25624458 14.5141988 -5.22143147 16.84725998 -11.33984375 17.18359375 C-14.56569919 17.18709631 -17.77700634 17.13085839 -21 17 C-20.77383427 11.45893969 -19.48823184 8.54976406 -15.66796875 4.51171875 C-10.77161986 0.07404423 -6.34918327 -0.71684327 0 0 Z " fill="#F5F7F7" transform="translate(601,481)"/>
<path d="M0 0 C-2.71182212 2.60334924 -3.89133813 2.99456691 -7.75 3.1875 C-8.8225 3.125625 -9.895 3.06375 -11 3 C-11 2.34 -11 1.68 -11 1 C-7.26562152 0.12132271 -3.83225427 -0.08912219 0 0 Z " fill="#6ABBA5" transform="translate(968,469)"/>
<path d="M0 0 C0.66 0.33 1.32 0.66 2 1 C-0.64 3.64 -3.28 6.28 -6 9 C-6.66 8.67 -7.32 8.34 -8 8 C-5.58443874 4.80800833 -3.31996462 2.25283313 0 0 Z " fill="#DEF1EC" transform="translate(1022,484)"/>
<path d="M0 0 C1.09658936 3.28976808 0.79953138 4.71303767 0 8 C-1.65 8.33 -3.3 8.66 -5 9 C-3.35 6.03 -1.7 3.06 0 0 Z " fill="#D1E9DF" transform="translate(855,472)"/>
</svg>
